<svg width="26" height="36" viewBox="0 0 26 36" fill="none" xmlns="http://www.w3.org/2000/svg">
<path d="M23.224 9.40299V33.9179C23.224 35.0597 22.276 36 21.125 36H4.84115C3.6901 36 2.74219 35.0597 2.74219 33.9179V9.40299H23.224ZM17.9089 12.1231V33.2127H19.1276V12.1231H17.9089ZM12.3906 12.1231V33.2127H13.6094V12.1231H12.3906ZM6.8724 12.1231V33.2127H8.09115V12.1231H6.8724ZM8.22656 3.72761V1.98134C8.22656 0.873135 9.10677 0 10.224 0H15.776C16.8932 0 17.7734 0.873135 17.7734 1.98134V3.72761H23.901C25.0521 3.72761 26 4.66791 26 5.8097V7.25373H0V5.77612C0 4.63433 0.947917 3.69403 2.09896 3.69403H8.22656V3.72761ZM10.224 1.34328C9.88542 1.34328 9.61458 1.61194 9.61458 1.94776V3.69403H16.4193V1.94776C16.4193 1.61194 16.1484 1.34328 15.8099 1.34328H10.224Z" fill="black"/>
</svg>
