<svg width="27" height="27" viewBox="0 0 27 27" fill="none" xmlns="http://www.w3.org/2000/svg">
<path d="M23.4157 17.9844H9.79379C9.56776 17.9847 9.34833 17.9082 9.17154 17.7674C8.99475 17.6266 8.87111 17.4298 8.82094 17.2094L6.52727 7.2166C6.49371 7.07062 6.49351 6.91897 6.52668 6.77291C6.55984 6.62685 6.62552 6.49015 6.71882 6.37298C6.81212 6.25581 6.93065 6.16119 7.06557 6.09616C7.20049 6.03113 7.34835 5.99737 7.49812 5.99738H25.7114C25.8613 5.99707 26.0094 6.03061 26.1446 6.09551C26.2797 6.16041 26.3985 6.25499 26.492 6.3722C26.5856 6.4894 26.6514 6.62621 26.6847 6.77242C26.718 6.91863 26.7178 7.07046 26.6842 7.2166L24.3866 17.2094C24.3365 17.4295 24.2131 17.626 24.0367 17.7668C23.8604 17.9076 23.6414 17.9843 23.4157 17.9844ZM10.5867 15.9922H22.6228L24.4603 7.99156H8.74855L10.5867 15.9922Z" fill="white"/>
<path d="M11.7428 26.8828C10.9879 26.8828 10.2499 26.659 9.62219 26.2396C8.99448 25.8201 8.50524 25.224 8.21634 24.5265C7.92743 23.8291 7.85185 23.0616 7.99913 22.3211C8.14641 21.5807 8.50994 20.9006 9.04377 20.3668C9.57759 19.8329 10.2577 19.4694 10.9981 19.3221C11.7386 19.1748 12.5061 19.2504 13.2035 19.5393C13.901 19.8282 14.4971 20.3175 14.9166 20.9452C15.336 21.5729 15.5598 22.3109 15.5598 23.0658C15.5588 24.0778 15.1563 25.0481 14.4407 25.7637C13.7251 26.4793 12.7548 26.8818 11.7428 26.8828ZM11.7428 21.2416C11.3819 21.2416 11.029 21.3487 10.7289 21.5492C10.4288 21.7498 10.1949 22.0348 10.0568 22.3683C9.91872 22.7018 9.88262 23.0687 9.95308 23.4227C10.0235 23.7767 10.1974 24.1019 10.4527 24.3571C10.708 24.6123 11.0332 24.786 11.3872 24.8563C11.7412 24.9267 12.1082 24.8904 12.4416 24.7522C12.775 24.614 13.06 24.38 13.2604 24.0798C13.4609 23.7796 13.5678 23.4268 13.5677 23.0658C13.5671 22.5821 13.3747 22.1183 13.0326 21.7763C12.6904 21.4343 12.2266 21.242 11.7428 21.2416Z" fill="white"/>
<path d="M21.4655 26.8828C20.7105 26.8828 19.9725 26.659 19.3448 26.2396C18.7171 25.8201 18.2279 25.224 17.939 24.5265C17.6501 23.8291 17.5745 23.0616 17.7218 22.3211C17.8691 21.5807 18.2326 20.9006 18.7664 20.3668C19.3002 19.8329 19.9804 19.4694 20.7208 19.3221C21.4612 19.1748 22.2287 19.2504 22.9262 19.5393C23.6237 19.8282 24.2198 20.3175 24.6392 20.9452C25.0586 21.5729 25.2825 22.3109 25.2825 23.0658C25.2814 24.0778 24.879 25.0481 24.1634 25.7637C23.4478 26.4793 22.4775 26.8818 21.4655 26.8828ZM21.4655 21.2416C21.1045 21.2416 20.7517 21.3487 20.4516 21.5492C20.1515 21.7498 19.9176 22.0348 19.7795 22.3683C19.6414 22.7018 19.6053 23.0687 19.6757 23.4227C19.7462 23.7767 19.9201 24.1019 20.1753 24.3571C20.4306 24.6123 20.7558 24.786 21.1099 24.8563C21.4639 24.9267 21.8308 24.8904 22.1643 24.7522C22.4977 24.614 22.7827 24.38 22.9831 24.0798C23.1835 23.7796 23.2904 23.4268 23.2903 23.0658C23.2898 22.5821 23.0973 22.1183 22.7552 21.7763C22.4131 21.4343 21.9492 21.242 21.4655 21.2416Z" fill="white"/>
<path d="M7.49789 7.98957C7.2888 7.98955 7.08502 7.92374 6.91542 7.80145C6.74582 7.67917 6.619 7.50662 6.55293 7.30824L4.84562 2.17969H1.69531C1.43113 2.17969 1.17777 2.07474 0.990968 1.88794C0.804164 1.70113 0.699219 1.44777 0.699219 1.18359C0.699219 0.919413 0.804164 0.666053 0.990968 0.479249C1.17777 0.292445 1.43113 0.1875 1.69531 0.1875H5.5668C5.77588 0.187519 5.97966 0.253333 6.14927 0.375617C6.31887 0.497901 6.44569 0.670454 6.51176 0.868828L8.44617 6.67871C8.49604 6.82843 8.50962 6.98785 8.4858 7.14385C8.46197 7.29985 8.40143 7.44795 8.30915 7.57596C8.21687 7.70397 8.0955 7.80823 7.95503 7.88014C7.81456 7.95205 7.65902 7.98956 7.50121 7.98957H7.49789Z" fill="white"/>
</svg>
